<svg id="Layer_1" data-name="Layer 1" xmlns="http://www.w3.org/2000/svg" viewBox="0 0 107.45 246.25"><defs><style>.cls-1{fill:#fff;}.cls-2{fill:#e67146;}.cls-3{fill:#0caaba;}.cls-4{fill:#05577c;}.cls-5{fill:#3f4999;}.cls-6{fill:#f4b491;}.cls-7{fill:#22234e;}.cls-8{fill:#15afd5;}.cls-9{fill:#2c2c79;}</style></defs><path d="M304.42,327a11.94,11.94,0,0,1,2.11,4,10.76,10.76,0,0,0-2-4Z" transform="translate(-244.28 -297.37)"/><path d="M291.24,335.14c0-.5.1-1,.18-1.46-.18.92-.25,1.53-.25,1.53Z" transform="translate(-244.28 -297.37)"/><path d="M293.91,327.5a10.28,10.28,0,0,0-1,1.59,11,11,0,0,1,1-1.59Z" transform="translate(-244.28 -297.37)"/><path d="M302.27,325.11l0,0,.17.09v0Z" transform="translate(-244.28 -297.37)"/><path d="M304.42,327a2.06,2.06,0,0,1-.35,0,1.93,1.93,0,0,1-1.66-1.74l-.17-.09a1.93,1.93,0,0,1-3.07-.7H299a2,2,0,0,1-2.12,1.32,2.09,2.09,0,0,1-.79-.3,1.63,1.63,0,0,1,0,.38A2,2,0,0,1,294,327.5a11,11,0,0,0-1,1.59,19.12,19.12,0,0,0-1.54,4.59c-.08.48-.14,1-.18,1.46,7.56-7.49,12.58-4.59,14.71-2.54a7.31,7.31,0,0,1,1,.75l0,.5a.59.59,0,0,1,.07.1,17.22,17.22,0,0,0-.56-2.95A11.94,11.94,0,0,0,304.42,327Z" transform="translate(-244.28 -297.37)"/><path d="M295.48,321.65l0,0,.09,0h-.11c-.09.13-.18.26-.29.39l-1.34,1.57a1.9,1.9,0,0,1,1.43.28,1.7,1.7,0,0,1,0-.39,2,2,0,0,1,1.11-1.49l-.06-.09A1.91,1.91,0,0,1,295.48,321.65Z" transform="translate(-244.28 -297.37)"/><path class="cls-1" d="M295.44,321.7h.11l-.09,0Z" transform="translate(-244.28 -297.37)"/><path d="M298.25,319.06a2,2,0,0,0-.74-.72c-.06.12-.13.24-.19.37l.16.05h-.19a21.4,21.4,0,0,1-1.59,2.59,2,2,0,0,1,.6.62h0a1.22,1.22,0,0,0,.27,0l.2-.05a2.06,2.06,0,0,1,0-.35,2,2,0,0,1,1.4-1.6,2.07,2.07,0,0,1,0-.61A2.81,2.81,0,0,1,298.25,319.06Z" transform="translate(-244.28 -297.37)"/><path d="M295.7,321.35l-.22.3a1.91,1.91,0,0,0,.82.32A2,2,0,0,0,295.7,321.35Z" transform="translate(-244.28 -297.37)"/><path class="cls-1" d="M297.29,318.76h.19l-.16-.05Z" transform="translate(-244.28 -297.37)"/><path d="M300.37,317.71a1.93,1.93,0,0,0-2.12,1.35,2,2,0,0,1,.27.86h.18c0-.42-.09-2.46,2.3-1.57,0,0-2-.12-2.28,1.57H299a1.93,1.93,0,0,1,1.63,1.58,2,2,0,0,0,.34-.12,2,2,0,0,1,1-1.15,2.66,2.66,0,0,0,.08-.33A2,2,0,0,0,300.37,317.71Z" transform="translate(-244.28 -297.37)"/><path d="M298.17,319.37a2.07,2.07,0,0,0,0,.61c.11,0,.22,0,.33-.06a2,2,0,0,0-.27-.86A2.81,2.81,0,0,0,298.17,319.37Z" transform="translate(-244.28 -297.37)"/><path class="cls-1" d="M298.7,319.92h0c.31-1.69,2.28-1.57,2.28-1.57C298.61,317.46,298.66,319.5,298.7,319.92Z" transform="translate(-244.28 -297.37)"/><path d="M299.83,321.57a1.91,1.91,0,0,1-1.32-.82.94.94,0,0,0-.15.06,2,2,0,0,1-.93,1s0,.07,0,.11h.07a1.94,1.94,0,0,1,1.59,1.4,2,2,0,0,1,1.61-1.53,1.17,1.17,0,0,0,0-.26A1.9,1.9,0,0,1,299.83,321.57Z" transform="translate(-244.28 -297.37)"/><path d="M297.31,321.89v-.05l-.13.05Z" transform="translate(-244.28 -297.37)"/><path d="M297.43,321.79a2,2,0,0,0,.93-1A1.7,1.7,0,0,0,297.43,321.79Z" transform="translate(-244.28 -297.37)"/><path d="M296.79,321.58a2.06,2.06,0,0,0,0,.35,1.9,1.9,0,0,1,.41,0l.13-.05a1.34,1.34,0,0,1,1-1.46,1.85,1.85,0,0,1-.12-.4A2,2,0,0,0,296.79,321.58Z" transform="translate(-244.28 -297.37)"/><path d="M299,319.93h-.27s0,.05,0,.07v-.07h-.18a1.79,1.79,0,0,1,0,.4,0,0,0,0,1,0,0,3,3,0,0,1,1.13.22,3.06,3.06,0,0,0-1.11.18,1.9,1.9,0,0,0,2.11.76A1.93,1.93,0,0,0,299,319.93Z" transform="translate(-244.28 -297.37)"/><path d="M298.31,320.38l.18,0a0,0,0,0,0,0,0,1.79,1.79,0,0,0,0-.4c-.11,0-.22,0-.33.06A1.85,1.85,0,0,0,298.31,320.38Z" transform="translate(-244.28 -297.37)"/><path d="M298.71,320s0-.05,0-.07h0Z" transform="translate(-244.28 -297.37)"/><path class="cls-1" d="M298.36,320.81a.94.94,0,0,1,.15-.06l-.08-.13A1.07,1.07,0,0,1,298.36,320.81Z" transform="translate(-244.28 -297.37)"/><path class="cls-1" d="M297.31,321.89h.08s0-.07,0-.11l-.12,0Z" transform="translate(-244.28 -297.37)"/><path class="cls-1" d="M297.31,321.84l.12,0a1.7,1.7,0,0,1,.93-1,1.07,1.07,0,0,0,.07-.19,1.34,1.34,0,0,1-.12-.24A1.34,1.34,0,0,0,297.31,321.84Z" transform="translate(-244.28 -297.37)"/><path class="cls-1" d="M298.43,320.62l.08.13a3.06,3.06,0,0,1,1.11-.18,3,3,0,0,0-1.13-.22A1.07,1.07,0,0,1,298.43,320.62Z" transform="translate(-244.28 -297.37)"/><path class="cls-1" d="M298.43,320.62a1.07,1.07,0,0,0,.06-.27l-.18,0A1.34,1.34,0,0,0,298.43,320.62Z" transform="translate(-244.28 -297.37)"/><path d="M302.92,320.78a1.88,1.88,0,0,0-1.36,1.06,1.92,1.92,0,0,1,1.33,1.9,2,2,0,0,1,1.5-.63l.06-.07-.37-.47C303.64,322,303.26,321.36,302.92,320.78Z" transform="translate(-244.28 -297.37)"/><path d="M302,320.24a2,2,0,0,1-1,1.15,1.3,1.3,0,0,0-.08.34h0a2.11,2.11,0,0,1,.35,0,1.16,1.16,0,0,1,.18,0c0-.57.3-1.35,1.34-1.31-.08-.14-.16-.28-.23-.42A2.1,2.1,0,0,0,302,320.24Z" transform="translate(-244.28 -297.37)"/><path d="M301,321.39a2,2,0,0,0,1-1.15A2,2,0,0,0,301,321.39Z" transform="translate(-244.28 -297.37)"/><path class="cls-1" d="M301.41,321.8l.15,0a1.88,1.88,0,0,1,1.36-1.06c-.06-.1-.12-.19-.17-.29C301.71,320.45,301.46,321.23,301.41,321.8Z" transform="translate(-244.28 -297.37)"/><polygon points="48.96 26.95 48.96 26.95 48.96 26.95 48.96 26.95"/><path d="M295.47,324.75a1.93,1.93,0,0,1-1.1.17,1.85,1.85,0,0,1-.76-.29,1.72,1.72,0,0,0-.82,1.29,2.31,2.31,0,0,1,.24-1.35l-.79.89a2,2,0,0,0,1.67,2,7.78,7.78,0,0,1,2.14-2.1A1.91,1.91,0,0,1,295.47,324.75Z" transform="translate(-244.28 -297.37)"/><path d="M293.91,327.5H294a8.83,8.83,0,0,1,2.15-2.05l-.07-.05A7.78,7.78,0,0,0,293.91,327.5Z" transform="translate(-244.28 -297.37)"/><path d="M294,327.5a2,2,0,0,0,2.14-1.66,1.63,1.63,0,0,0,0-.38h0A8.83,8.83,0,0,0,294,327.5Z" transform="translate(-244.28 -297.37)"/><path d="M294.45,323.64a2,2,0,0,0-.64,0l-.57.66h0c.33-.28.89-.39,1.84,0a2.85,2.85,0,0,0-1.47.35,1.85,1.85,0,0,0,.76.29,1.93,1.93,0,0,0,1.1-.17,1.89,1.89,0,0,1-.23-.81A1.94,1.94,0,0,0,294.45,323.64Z" transform="translate(-244.28 -297.37)"/><path class="cls-1" d="M293.24,324.32l-.21.25a2.31,2.31,0,0,0-.24,1.35,1.72,1.72,0,0,1,.82-1.29,1.56,1.56,0,0,1-.37-.31Z" transform="translate(-244.28 -297.37)"/><path class="cls-1" d="M293.24,324.32a1.56,1.56,0,0,0,.37.31,2.85,2.85,0,0,1,1.47-.35C294.13,323.93,293.57,324,293.24,324.32Z" transform="translate(-244.28 -297.37)"/><path d="M296.57,322l-.21.08a2.75,2.75,0,0,1,.15.36,1.35,1.35,0,0,1,.32-.09,2,2,0,0,1-.06-.35Z" transform="translate(-244.28 -297.37)"/><path d="M298.44,323.79a1.94,1.94,0,0,1-1.47-1.07,2.64,2.64,0,0,0-.38.18,2.17,2.17,0,0,1,0,.36,2,2,0,0,1-.76,1.28,1.84,1.84,0,0,1,.29.82,5.84,5.84,0,0,1,1.87-.76,4.71,4.71,0,0,1,1-.18,1.6,1.6,0,0,0,.05-.21,2.13,2.13,0,0,1-.07-.44A2.15,2.15,0,0,1,298.44,323.79Z" transform="translate(-244.28 -297.37)"/><path d="M299,324.44v0a4.71,4.71,0,0,0-1,.18A5.76,5.76,0,0,1,299,324.44Z" transform="translate(-244.28 -297.37)"/><path d="M296.12,325.44a6.46,6.46,0,0,1,1.86-.84,5.84,5.84,0,0,0-1.87.76S296.12,325.42,296.12,325.44Z" transform="translate(-244.28 -297.37)"/><path d="M296.12,325.44v0a2.09,2.09,0,0,0,.79.3,2,2,0,0,0,2.12-1.32,5.76,5.76,0,0,0-1,.16A6.46,6.46,0,0,0,296.12,325.44Z" transform="translate(-244.28 -297.37)"/><path d="M295.79,324.18s-.19-1.37.72-1.76a2.75,2.75,0,0,0-.15-.36,2,2,0,0,0-1.11,1.49,1.7,1.7,0,0,0,0,.39,1.85,1.85,0,0,1,.58.6,2,2,0,0,0,.76-1.28,2.17,2.17,0,0,0,0-.36A1.71,1.71,0,0,0,295.79,324.18Z" transform="translate(-244.28 -297.37)"/><path d="M296.77,322v-.05l-.2.05Z" transform="translate(-244.28 -297.37)"/><path d="M297.46,321.9h-.07a2.38,2.38,0,0,0-.07.31s0-.13,0-.32h-.13a2.71,2.71,0,0,1-.41.09,2,2,0,0,0,.06.35,2.64,2.64,0,0,1,1.25.21,3.06,3.06,0,0,0-1.11.18,1.94,1.94,0,0,0,1.47,1.07,2.15,2.15,0,0,0,.57,0,2.17,2.17,0,0,1,0-.36s0-.07,0-.11A1.94,1.94,0,0,0,297.46,321.9Z" transform="translate(-244.28 -297.37)"/><path d="M296.77,322a2.71,2.71,0,0,0,.41-.09,1.9,1.9,0,0,0-.41,0Z" transform="translate(-244.28 -297.37)"/><path d="M297.32,322.21a2.38,2.38,0,0,1,.07-.31h-.08C297.31,322.08,297.32,322.21,297.32,322.21Z" transform="translate(-244.28 -297.37)"/><path d="M295.47,324.75a1.91,1.91,0,0,0,.58.65l.06,0a1.84,1.84,0,0,0-.29-.82A1.71,1.71,0,0,1,295.47,324.75Z" transform="translate(-244.28 -297.37)"/><path d="M296.05,325.4l.07.05h0s0-.05,0-.08Z" transform="translate(-244.28 -297.37)"/><path d="M296.12,325.46v0h0Z" transform="translate(-244.28 -297.37)"/><path d="M295.24,323.94a1.89,1.89,0,0,0,.23.81,1.71,1.71,0,0,0,.35-.21A1.85,1.85,0,0,0,295.24,323.94Z" transform="translate(-244.28 -297.37)"/><path class="cls-1" d="M296.51,322.42a2,2,0,0,1,.08.48,2.64,2.64,0,0,1,.38-.18,1.64,1.64,0,0,1-.14-.39A1.35,1.35,0,0,0,296.51,322.42Z" transform="translate(-244.28 -297.37)"/><path class="cls-1" d="M295.79,324.18a1.71,1.71,0,0,1,.8-1.28,2,2,0,0,0-.08-.48C295.6,322.81,295.79,324.18,295.79,324.18Z" transform="translate(-244.28 -297.37)"/><path class="cls-1" d="M297,322.72a3.06,3.06,0,0,1,1.11-.18,2.64,2.64,0,0,0-1.25-.21A1.64,1.64,0,0,0,297,322.72Z" transform="translate(-244.28 -297.37)"/><path d="M300.64,322.13s0,0,0,.06h.24a2.17,2.17,0,0,1,0-.44,1.46,1.46,0,0,0-.22,0A2.17,2.17,0,0,1,300.64,322.13Z" transform="translate(-244.28 -297.37)"/><path d="M300.93,322.51a2.65,2.65,0,0,0-.47.2,2,2,0,0,1-.75.81,1.87,1.87,0,0,0-.15.52,3.06,3.06,0,0,1,0-.42,2.71,2.71,0,0,1-.43.14,1.3,1.3,0,0,1,0,.34.45.45,0,0,1,0,.11,1.67,1.67,0,0,0,.08.2,4,4,0,0,1,.49,0,5.64,5.64,0,0,1,.92.11,5.92,5.92,0,0,1,1.7.6l.13-.12c0-.07,0-.15,0-.22a2,2,0,0,1,.34-.84h-.2A2,2,0,0,1,300.93,322.51Z" transform="translate(-244.28 -297.37)"/><path d="M299.16,324.41a0,0,0,0,0,0,0,8.26,8.26,0,0,1,1.2.05,5.9,5.9,0,0,0-.72-.09A4,4,0,0,0,299.16,324.41Z" transform="translate(-244.28 -297.37)"/><path d="M300.42,324.49h-.05l.2,0Z" transform="translate(-244.28 -297.37)"/><path d="M302.24,325.14l0,0a5.92,5.92,0,0,0-1.7-.6A6,6,0,0,1,302.24,325.14Z" transform="translate(-244.28 -297.37)"/><path d="M300.42,324.49a7.64,7.64,0,0,0-1.25-.05,1.93,1.93,0,0,0,3.07.7,6,6,0,0,0-1.67-.63Z" transform="translate(-244.28 -297.37)"/><path d="M299.71,323.52a2,2,0,0,0,.75-.81A1.7,1.7,0,0,0,299.71,323.52Z" transform="translate(-244.28 -297.37)"/><path d="M299.05,323.3a1.43,1.43,0,0,1,.07.46,2.71,2.71,0,0,0,.43-.14,1.31,1.31,0,0,1,1.08-1.43s0,0,0-.06a2.17,2.17,0,0,0,0-.36A2,2,0,0,0,299.05,323.3Z" transform="translate(-244.28 -297.37)"/><path d="M301.56,321.84a1.68,1.68,0,0,0-.12.43,2.83,2.83,0,0,1,.42.13,3,3,0,0,0-.93.11,2,2,0,0,0,1.62,1.41h.2l.14-.19A1.92,1.92,0,0,0,301.56,321.84Z" transform="translate(-244.28 -297.37)"/><path d="M301.23,321.76a2.11,2.11,0,0,0-.35,0,2.17,2.17,0,0,0,0,.44,2.94,2.94,0,0,1,.54.08,2.31,2.31,0,0,1,0-.46A1.16,1.16,0,0,0,301.23,321.76Z" transform="translate(-244.28 -297.37)"/><path d="M301.41,322.26h0a1.68,1.68,0,0,1,.12-.43l-.15,0A2.31,2.31,0,0,0,301.41,322.26Z" transform="translate(-244.28 -297.37)"/><path d="M299.08,324.21a.45.45,0,0,0,0-.11,1.3,1.3,0,0,0,0-.34H299A2.13,2.13,0,0,0,299.08,324.21Z" transform="translate(-244.28 -297.37)"/><path d="M299,323.41a2.17,2.17,0,0,0,0,.36h.11a1.43,1.43,0,0,0-.07-.46S299,323.37,299,323.41Z" transform="translate(-244.28 -297.37)"/><path class="cls-1" d="M299.56,324a1.87,1.87,0,0,1,.15-.52l-.16.1A3.06,3.06,0,0,0,299.56,324Z" transform="translate(-244.28 -297.37)"/><path class="cls-1" d="M300.63,322.19a1.87,1.87,0,0,1-.17.52,2.65,2.65,0,0,1,.47-.2,2.79,2.79,0,0,1-.06-.33Z" transform="translate(-244.28 -297.37)"/><path class="cls-1" d="M299.55,323.62l.16-.1a1.7,1.7,0,0,1,.75-.81,1.87,1.87,0,0,0,.17-.52A1.31,1.31,0,0,0,299.55,323.62Z" transform="translate(-244.28 -297.37)"/><path class="cls-1" d="M301.42,322.36a.45.45,0,0,1,0-.1,2.94,2.94,0,0,0-.54-.08,2.79,2.79,0,0,0,.06.33,3,3,0,0,1,.93-.11,2.83,2.83,0,0,0-.42-.13A.29.29,0,0,0,301.42,322.36Z" transform="translate(-244.28 -297.37)"/><path class="cls-1" d="M301.42,322.36a.29.29,0,0,1,0-.09h0A.45.45,0,0,0,301.42,322.36Z" transform="translate(-244.28 -297.37)"/><path d="M303,325.4a2.09,2.09,0,0,1,.38-1.53,1.67,1.67,0,0,1-.44.06v0a1.91,1.91,0,0,1-.49,1v.2a7.5,7.5,0,0,1,2.12,1.79,1.94,1.94,0,0,0,1.75-1.66h0L305,323.76A2,2,0,0,0,303,325.4Z" transform="translate(-244.28 -297.37)"/><path d="M304.39,323.11a2,2,0,0,1-.43.45,2.31,2.31,0,0,1,1,.11l-.45-.56Z" transform="translate(-244.28 -297.37)"/><path d="M302.4,325.19v0a7.88,7.88,0,0,1,2,1.76h.1A7.5,7.5,0,0,0,302.4,325.19Z" transform="translate(-244.28 -297.37)"/><path d="M302.41,325.23a1.93,1.93,0,0,0,1.66,1.74,2.06,2.06,0,0,0,.35,0A7.88,7.88,0,0,0,302.41,325.23Z" transform="translate(-244.28 -297.37)"/><path d="M302.89,323.93a1.67,1.67,0,0,0,.44-.06,1,1,0,0,1,.63-.31,2,2,0,0,0,.43-.45,2,2,0,0,0-1.5.63Z" transform="translate(-244.28 -297.37)"/><path d="M302.41,324.77c0,.07,0,.15,0,.22a1.91,1.91,0,0,0,.49-1v0h-.14A2,2,0,0,0,302.41,324.77Z" transform="translate(-244.28 -297.37)"/><path d="M302.89,323.93v-.19l-.14.19Z" transform="translate(-244.28 -297.37)"/><path class="cls-1" d="M304,323.56a1.85,1.85,0,0,1-.63.31,2.09,2.09,0,0,0-.38,1.53,2,2,0,0,1,2.07-1.64l-.07-.09A2.31,2.31,0,0,0,304,323.56Z" transform="translate(-244.28 -297.37)"/><path class="cls-1" d="M304,323.56a1,1,0,0,0-.63.31A1.85,1.85,0,0,0,304,323.56Z" transform="translate(-244.28 -297.37)"/><path class="cls-2" d="M292.28,342.78s.17.31.47.77l-.14-.3Z" transform="translate(-244.28 -297.37)"/><path class="cls-2" d="M298.8,348.09h0Z" transform="translate(-244.28 -297.37)"/><path class="cls-2" d="M299.37,348.1v0a3.85,3.85,0,0,1-.48,0A3.85,3.85,0,0,0,299.37,348.1Z" transform="translate(-244.28 -297.37)"/><path class="cls-2" d="M299.89,348a4.78,4.78,0,0,0,1.25-.37,6.09,6.09,0,0,1-1.25.34Z" transform="translate(-244.28 -297.37)"/><path class="cls-2" d="M299.37,348.1l.52-.06v0a4.6,4.6,0,0,1-.52.06Z" transform="translate(-244.28 -297.37)"/><path class="cls-2" d="M292.61,343.25l.14.3A11.6,11.6,0,0,0,297,347.6c0-.17,0-.34,0-.52A10.34,10.34,0,0,1,292.61,343.25Z" transform="translate(-244.28 -297.37)"/><path class="cls-2" d="M301.92,346.68l.46,0c0,.07,0,.15,0,.23a12.67,12.67,0,0,0,3-3.36A11,11,0,0,1,301.92,346.68Z" transform="translate(-244.28 -297.37)"/><path class="cls-2" d="M297,347.08c0,.18,0,.35,0,.52a5,5,0,0,0,1.66.48h.11a5.43,5.43,0,0,0,.57,0v-.6A5.36,5.36,0,0,1,297,347.08Z" transform="translate(-244.28 -297.37)"/><path class="cls-2" d="M299.9,347.4V348a6.09,6.09,0,0,0,1.25-.34,6.69,6.69,0,0,0,1.2-.72c0-.08,0-.16,0-.23l-.46,0A6.57,6.57,0,0,1,299.9,347.4Z" transform="translate(-244.28 -297.37)"/><path class="cls-2" d="M299.37,348.07a4.6,4.6,0,0,0,.52-.06v-.61l-.52.07Z" transform="translate(-244.28 -297.37)"/><path class="cls-2" d="M298.63,354.64s.24.68.62.68V355A.51.51,0,0,1,298.63,354.64Z" transform="translate(-244.28 -297.37)"/><path class="cls-2" d="M299.8,354.85a2,2,0,0,0,.11-.21l-.11.08Z" transform="translate(-244.28 -297.37)"/><path class="cls-2" d="M299.25,355.32c.16,0,.35-.12.55-.47v-.13a1.6,1.6,0,0,1-.54.23Z" transform="translate(-244.28 -297.37)"/><path class="cls-2" d="M290.59,358.26v0c.29-.08.57-.14.85-.19l0-.19C291,358.06,290.72,358.2,290.59,358.26Z" transform="translate(-244.28 -297.37)"/><path class="cls-2" d="M291.43,357.9l0,.19a18,18,0,0,1,4.82-.36C294.82,356.84,292.65,357.44,291.43,357.9Z" transform="translate(-244.28 -297.37)"/><path class="cls-2" d="M306.22,358a12.49,12.49,0,0,1,1.26.28,10.52,10.52,0,0,0-1.24-.52Z" transform="translate(-244.28 -297.37)"/><path class="cls-2" d="M301.73,357.73a18.16,18.16,0,0,1,4.49.29l0-.24C305,357.35,303.06,356.91,301.73,357.73Z" transform="translate(-244.28 -297.37)"/><path class="cls-3" d="M292.54,336.53s9.42-5.67,14.09,1.79c0,0,.58-.57.28-1C306.91,337.33,302.2,329.63,292.54,336.53Z" transform="translate(-244.28 -297.37)"/><path class="cls-3" d="M291.27,335.4l.13,1.08c5.44-6.35,11.74-4,13.9-2.92C296.46,328.82,291.27,335.4,291.27,335.4Z" transform="translate(-244.28 -297.37)"/><path class="cls-3" d="M306.08,334a7.49,7.49,0,0,0-.78-.44C305.56,333.7,305.82,333.84,306.08,334Z" transform="translate(-244.28 -297.37)"/><path class="cls-3" d="M299.65,366.5h-.59a47.76,47.76,0,0,0-6.66.66,44.3,44.3,0,0,0-5.39,1.23,23.53,23.53,0,0,0,.22,4.53,10.64,10.64,0,0,0,1.19,3.91c2.39,7.07,2.2,12.15,1.44,15.43,0,.11,0,.21-.07.32h0a14.36,14.36,0,0,1-1.24,3.28l-.06.11,0,.07a5.35,5.35,0,0,1-.51.78,27,27,0,0,0,10.58,2.44h.7a22.91,22.91,0,0,0,10.27-2.37c-.35-.85-.56-1.33-.56-1.33h0a12.3,12.3,0,0,1-.85-3c-1.09-6.68,1.9-15.38,1.9-15.38a2.56,2.56,0,0,0,.2-.26c1.49-2.13,1.46-8.14,1.46-8.14a23.22,23.22,0,0,0-6.12-1.89A33.7,33.7,0,0,0,299.65,366.5Z" transform="translate(-244.28 -297.37)"/><polygon class="cls-4" points="54.79 16.28 54.79 16.29 54.79 16.28 54.79 16.28"/><polygon class="cls-4" points="56.18 16.63 56.18 16.63 56.18 16.63 56.18 16.63"/><path class="cls-5" d="M314.77,412.83l0,0h0a111.71,111.71,0,0,0-4.44-13.9,25.05,25.05,0,0,1-11.1,2.3l-.7,0a35,35,0,0,1-11.81-2.53h0a22.41,22.41,0,0,0-2.48,4.87,26.89,26.89,0,0,0-1.58,8.17c0,.06,0,.13-.05.19-2.82,10.86.16,33.61.16,33.61.82,8.06-.21,10.13-.21,10.13a71.7,71.7,0,0,0-2.43,22.49c.21,2.09,4.87,20.3,7.08,28.84l2.12-.11.45,3c-.26-2.22-.41-5-.41-5,.59-18.48.07-26.86.07-26.86-.09-2-.14-4.09-.16-6.07-.86,1.41-1.3-.74-1.3-.74a7,7,0,0,1,1-4.33l.25-.3.07-.09a6.49,6.49,0,0,0,.41-.61,6.09,6.09,0,0,0-.41.57c0-4.84.18-8.35.18-8.35a37.1,37.1,0,0,0,.63-6c3.7-11,7-24.27,8.15-31.67h0l0,0h0a6,6,0,0,1,.63-.12h.12a2.44,2.44,0,0,1,1.36.15c5.26,3,25.24,14.52,29.85,16.34l.48.3c-5.88,1.69-15.27,5.36-22.46,12.8a42.62,42.62,0,0,1-8.88,5.69s0,2.72,1.13,3.74c7.46-4.09,25.44-13.72,30.47-14.56,0,0,8.11-2.07,10.88-5.2,1.53-.29,2.14-1.25.51-3.49C338.4,431.85,330.53,424.58,314.77,412.83Z" transform="translate(-244.28 -297.37)"/><path class="cls-5" d="M292,336.62s8.35-7.15,14.19-.56c0,0,.48-.66.11-1C306.3,335,300.39,328.22,292,336.62Z" transform="translate(-244.28 -297.37)"/><path class="cls-5" d="M307,333.35a7.31,7.31,0,0,0-1-.75c-2.1-1.29-7.11-3.36-13.09,1.3,1.95-1.45,7.76-4.82,14.19.53l0-.58Z" transform="translate(-244.28 -297.37)"/><path class="cls-5" d="M292.86,333.9a9,9,0,0,0-.7.56C292.39,334.26,292.62,334.07,292.86,333.9Z" transform="translate(-244.28 -297.37)"/><path class="cls-5" d="M291.34,522.36a1.12,1.12,0,0,1,.05-.13c0-.78-.05-1.64-.1-2.51C291.31,520.52,291.33,521.4,291.34,522.36Z" transform="translate(-244.28 -297.37)"/><path class="cls-5" d="M290.8,513.79a5.71,5.71,0,0,0-.3-1.3A10,10,0,0,1,290.8,513.79Z" transform="translate(-244.28 -297.37)"/><path class="cls-5" d="M288.29,511.35,287.16,507C287.84,509.62,288.29,511.35,288.29,511.35Z" transform="translate(-244.28 -297.37)"/><polygon class="cls-5" points="55.01 158.14 55.01 158.14 55.01 158.14 55.01 158.14"/><path class="cls-5" d="M296.18,456.19l.36.23.28-.09-.28.06A2.86,2.86,0,0,0,296.18,456.19Z" transform="translate(-244.28 -297.37)"/><path class="cls-6" d="M289.86,392.26c.76-3.28.95-8.36-1.44-15.43C290.72,384,290.59,389,289.86,392.26Z" transform="translate(-244.28 -297.37)"/><path class="cls-6" d="M288.45,396.05l-.15.26Z" transform="translate(-244.28 -297.37)"/><path class="cls-6" d="M298.94,420.34v-.11h-.12Z" transform="translate(-244.28 -297.37)"/><path class="cls-6" d="M282.56,411.88c0-.06,0-.13.05-.19a26.89,26.89,0,0,1,1.58-8.17A21.62,21.62,0,0,0,282.56,411.88Z" transform="translate(-244.28 -297.37)"/><path class="cls-6" d="M288.42,376.83a10.64,10.64,0,0,1-1.19-3.91C287.62,376.09,288.42,376.83,288.42,376.83Z" transform="translate(-244.28 -297.37)"/><path class="cls-6" d="M314.73,412.8h0l0,0v-.06l0,0Z" transform="translate(-244.28 -297.37)"/><path class="cls-6" d="M299.22,399.27h-.7a27,27,0,0,1-10.58-2.44,5,5,0,0,0,.36-.52,6.05,6.05,0,0,1-.6.83c-.37.51-.71,1-1,1.51a35,35,0,0,0,11.81,2.53l.7,0a25.05,25.05,0,0,0,11.1-2.3c-.31-.79-.58-1.47-.8-2A22.91,22.91,0,0,1,299.22,399.27Z" transform="translate(-244.28 -297.37)"/><path class="cls-6" d="M308.93,395.57h0a14.08,14.08,0,0,1-.89-3A12.3,12.3,0,0,0,308.93,395.57Z" transform="translate(-244.28 -297.37)"/><path class="cls-6" d="M298.17,420.38l0,0h0Z" transform="translate(-244.28 -297.37)"/><path class="cls-6" d="M310.18,377a2.56,2.56,0,0,1-.2.26A1.28,1.28,0,0,0,310.18,377Z" transform="translate(-244.28 -297.37)"/><path class="cls-6" d="M293,329.09a15,15,0,0,0-1.54,4.59A19.12,19.12,0,0,1,293,329.09Z" transform="translate(-244.28 -297.37)"/><path class="cls-6" d="M299,324.42v0h.14a0,0,0,0,1,0,0Z" transform="translate(-244.28 -297.37)"/><path class="cls-6" d="M318.9,334c-2.07-8.39-15.18-18.34-15.18-18.34l-.37-.24c0-.17,0-.28,0-.28a16.21,16.21,0,0,0,.17-3.2c-.13-1.4-.19-3.72-.19-3.72,0-.66,0-2.47,0-2.47l-.5-.81a15.79,15.79,0,0,1-.51-3.56,14.38,14.38,0,0,1-2.08-3,1.65,1.65,0,0,0-.07-1.07l-.27.46a.87.87,0,0,1-.08-.14,1,1,0,0,0-.14.49,14.66,14.66,0,0,1-2.14,2.82,16.36,16.36,0,0,1-.63,3.54l-.53.79s0,1.81-.05,2.47c0,0-.13,2.32-.32,3.71a16.41,16.41,0,0,0,.07,3.2s0,.12,0,.28l-.37.23s-13.45,9.49-15.81,17.8c0,0-2.07,1.44-1.18,3.08,0,0-.26,8.11,3.77,20.58,0,0,1.05,4.79,3.38,7.25a30.56,30.56,0,0,0,1.1,4.46,44.3,44.3,0,0,1,5.39-1.23,47.76,47.76,0,0,1,6.66-.66h.59a33.7,33.7,0,0,1,5.87.43,23.22,23.22,0,0,1,6.12,1.89,29.26,29.26,0,0,0,1.44-5.64,21.88,21.88,0,0,0,2.41-5.61C320,345.25,320,337.14,320,337.14,320.92,335.52,318.9,334,318.9,334Zm-27.45,24.07c-.28.05-.56.11-.85.19v0c.13-.06.43-.2.84-.36,1.22-.46,3.39-1.06,4.84-.17A18,18,0,0,0,291.45,358.09Zm8.35-3.24c-.2.35-.39.48-.55.47-.38,0-.62-.68-.62-.68a.51.51,0,0,0,.63.31,1.6,1.6,0,0,0,.54-.23l.11-.08A2,2,0,0,1,299.8,354.85Zm6.42,3.17a18.16,18.16,0,0,0-4.49-.29c1.33-.82,3.26-.38,4.51,0a10.52,10.52,0,0,1,1.24.52A12.49,12.49,0,0,0,306.22,358Zm6.69-15.66c-1.84,3-4.32,11.63-5,14-2.09-.2-6.72-1.54-5.6-9.31,2.76-1.82,4.75-5.81,4.92-10.51a16.39,16.39,0,0,0-.72-5.53,17.22,17.22,0,0,1,.56,2.95.59.59,0,0,0-.07-.1l0,.58c-6.43-5.35-12.24-2-14.19-.53-.24.17-.47.36-.7.56a9,9,0,0,1,.7-.56c6-4.66,11-2.59,13.09-1.3-2.13-2.05-7.15-5-14.71,2.54,0,.27,0,.54-.05.81a15.66,15.66,0,0,0,1.42,7.3,10.34,10.34,0,0,0,4.37,3.83,5.36,5.36,0,0,0,2.4.39l.52-.07a6.57,6.57,0,0,0,2-.72,11,11,0,0,0,3.38-3.09,12.67,12.67,0,0,1-3,3.36,6.69,6.69,0,0,1-1.2.72,4.78,4.78,0,0,1-1.25.37l-.52.06a5.15,5.15,0,0,1-.68,0,5,5,0,0,1-1.66-.48,11.6,11.6,0,0,1-4.28-4.05,8.35,8.35,0,0,0,4.29,4.18c.58,8.52-5.94,8.38-6.83,8.32-.42-1.77-2.74-11.25-4.57-14.48,0,0-3-5.72-.6-8.22,0,0,3.63-3.85,7.2-7.89l.79-.89a1.21,1.21,0,0,1,.21-.25h0a1.76,1.76,0,0,1-.24-.3,1.76,1.76,0,0,0,.24.3l.57-.66,1.34-1.57c.11-.13.2-.26.29-.39l0,0,0,0,.22-.3a21.4,21.4,0,0,0,1.59-2.59l0-.05c.06-.13.13-.25.19-.37.31-.63.56-1.22.76-1.75a14.86,14.86,0,0,0,.65-2.13l0-.1h0a3.23,3.23,0,0,1,.14-.69h0a.5.5,0,0,1,.05-.13l0,0a15.68,15.68,0,0,0,.17-6.2c0-.1-.05-.2-.07-.32h0l0-.21a7.14,7.14,0,0,0-.45-2.52,10.79,10.79,0,0,0,0-2.4,15.22,15.22,0,0,0,1.28-2.33,14.38,14.38,0,0,0,1.31,2.7,10.78,10.78,0,0,0-.12,2.39,7.34,7.34,0,0,0-.53,2.51,1.18,1.18,0,0,1,0,.2h0a2.33,2.33,0,0,1-.08.31,15.7,15.7,0,0,0,0,6.21h0c0,.05,0,.09,0,.13h0a3.39,3.39,0,0,1,.12.7h0l0,.11a15.69,15.69,0,0,0,.57,2.15,21,21,0,0,0,1.37,3.11c.07.14.15.28.23.42s.11.19.17.29c.34.58.72,1.18,1.16,1.79l.37.47.05.07.45.56.07.09,1.25,1.55c3.61,4.41,7.52,8.86,7.52,8.86C316.1,336.75,312.91,342.36,312.91,342.36ZM306.3,335c.37.37-.11,1-.11,1-5.84-6.59-14.19.56-14.19.56C300.39,328.22,306.3,335,306.3,335Zm-14.9,1.45-.13-1.08s5.19-6.58,14-1.84a7.49,7.49,0,0,1,.78.44c-.26-.16-.52-.3-.78-.44C303.14,332.46,296.84,330.13,291.4,336.48Zm15.51.85c.3.42-.28,1-.28,1-4.67-7.46-14.09-1.79-14.09-1.79C302.2,329.63,306.91,337.33,306.91,337.33Z" transform="translate(-244.28 -297.37)"/><path class="cls-6" d="M290.8,513.79a10,10,0,0,0-.3-1.3c-.27-.86-.49-.88-.49-.88l-.28-1.8-.45-3-2.12.11h0l1.13,4.39c-1,3.43-1.07,8.44-1,11.15l0,0c.46.78,2.5,3.86,4-.19,0-1,0-1.84,0-2.64A43.79,43.79,0,0,0,290.8,513.79Z" transform="translate(-244.28 -297.37)"/><path class="cls-6" d="M299.29,455.51l-2.47.82-.28.09-.36-.23a4.32,4.32,0,0,0-1-.42l0,0c1.35,2.07-2.08,5-2.08,5,.24,1.81-1,5-2.09,7.35l-.43.91,6.5-7.81,3.39-1.94-.11-.09C299.27,458.23,299.29,455.51,299.29,455.51Z" transform="translate(-244.28 -297.37)"/><path class="cls-7" d="M291.34,522.36c-1.52,4-3.56,1-4,.19l0,0-.06-.12c-.25,7.53,1.73,7.41,1.73,7.41,2.37-.93,2.65-8.25,2.65-8.25-.07.25-.15.48-.22.69A1.12,1.12,0,0,0,291.34,522.36Z" transform="translate(-244.28 -297.37)"/><path class="cls-7" d="M295.22,455.77a1.85,1.85,0,0,0-.4-.45s-4.74-2.32-3.4,5.82a17.66,17.66,0,0,1-1.8,4.68,6.49,6.49,0,0,1-.41.61l-.07.09-.25.3a7,7,0,0,0-1,4.33s.44,2.15,1.3.74a5.24,5.24,0,0,0,.35-.74s.46-.83,1.06-2.06l.43-.91c1.08-2.35,2.33-5.54,2.09-7.35,0,0,3.43-3,2.08-5Z" transform="translate(-244.28 -297.37)"/><rect class="cls-8" x="291.18" y="356.03" width="0.49" height="11.66" transform="translate(-280.36 -265.07) rotate(-5.98)"/><rect class="cls-8" x="301.19" y="361.62" width="11.31" height="0.49" transform="translate(-322.24 342.01) rotate(-85.5)"/><path class="cls-9" d="M349.53,538.48h0l-103.07.76a2.2,2.2,0,0,0,0,4.39h0l103.07-.77a2.19,2.19,0,0,0,0-4.38Z" transform="translate(-244.28 -297.37)"/><path class="cls-7" d="M298.56,420.25s2.61-2.66,3.08-5.4c0,0-3.52,4.85-4.31,4.48L290,450.8S291.28,448.05,298.56,420.25Z" transform="translate(-244.28 -297.37)"/><path class="cls-7" d="M284,493.15a49,49,0,0,1-2.4-32.17C278.66,475.18,284,493.15,284,493.15Z" transform="translate(-244.28 -297.37)"/><path class="cls-7" d="M286.86,399.22c-1.37,1.71-2.79,7.66-3.72,14.77-2,15.4.27,33.81.27,33.81a102.61,102.61,0,0,1-1.14-34.41C282.9,403.42,286.86,399.22,286.86,399.22Z" transform="translate(-244.28 -297.37)"/><path class="cls-7" d="M310.32,399.19a27.38,27.38,0,0,1,2,5.57c.53,1.9,1.19,3.78,1.77,5.67.15.47.1,1,.29,1.43a2.19,2.19,0,0,0,.75,1.17,29.37,29.37,0,0,0,2.47,1.64c1.68,1.05,3.23,2.29,4.81,3.47q4.73,3.62,9.2,7.52c3,2.6,5.83,5.35,8.56,8.22l1.24,1.26c-2.81-2.78-7.16-6.51-10.14-9.09s-6.09-5-9.25-7.39c-1.57-1.2-3.22-2.29-4.74-3.55L315,413.23a2,2,0,0,1-.53-.58c-.12-.22-.23-.45-.33-.68l-.58-1.37c-.75-1.84-1.27-3.89-1.91-5.76a56.88,56.88,0,0,1-1.78-5.47Z" transform="translate(-244.28 -297.37)"/></svg>